<?xml version="1.0" encoding="iso-8859-1"?>
<!-- Generator: Adobe Illustrator 19.0.0, SVG Export Plug-In . SVG Version: 6.00 Build 0)  -->
<svg version="1.1" id="Capa_1" xmlns="http://www.w3.org/2000/svg" xmlns:xlink="http://www.w3.org/1999/xlink" x="0px" y="0px"
	 viewBox="0 0 512 512" style="enable-background:new 0 0 512 512;" xml:space="preserve">
<g>
	<g>
		<rect x="60.25" y="467" width="120.5" height="45"/>
	</g>
</g>
<g>
	<g>
		<rect x="210.75" y="355" width="90.5" height="157"/>
	</g>
</g>
<g>
	<g>
		<polygon points="421.75,280 421.75,260 391.5,260 391.5,280 361.5,280 361.5,260 331.25,260 331.25,280 301.25,280 301.25,260 
			271,260 271,280 241,280 241,260 210.75,260 210.75,280 180.75,280 180.75,260 150.5,260 150.5,280 120.5,280 120.5,260 
			90.25,260 90.25,280 60.25,280 60.25,437 180.75,437 180.75,325 331.25,325 331.25,437 451.75,437 451.75,280 		"/>
	</g>
</g>
<g>
	<g>
		<rect x="331.25" y="467" width="120.5" height="45"/>
	</g>
</g>
<g>
	<g>
		<path d="M492.714,200.37L297.187,16.369C286.008,5.813,271.38,0,256,0s-30.008,5.813-41.168,16.352L19.286,200.37
			c-7.55,7.104-13.823,18.376-17.014,29.63h507.456C506.537,218.746,500.263,207.474,492.714,200.37z"/>
	</g>
</g>
<g>
	<g>
		<rect x="482" y="260" width="30" height="20"/>
	</g>
</g>
<g>
	<g>
		<rect y="260" width="30" height="20"/>
	</g>
</g>
<g>
</g>
<g>
</g>
<g>
</g>
<g>
</g>
<g>
</g>
<g>
</g>
<g>
</g>
<g>
</g>
<g>
</g>
<g>
</g>
<g>
</g>
<g>
</g>
<g>
</g>
<g>
</g>
<g>
</g>
</svg>
