<?xml version="1.0" encoding="iso-8859-1"?>
<!-- Generator: Adobe Illustrator 19.0.0, SVG Export Plug-In . SVG Version: 6.00 Build 0)  -->
<svg version="1.1" id="Capa_1" xmlns="http://www.w3.org/2000/svg" xmlns:xlink="http://www.w3.org/1999/xlink" x="0px" y="0px"
	 viewBox="0 0 512 512" style="enable-background:new 0 0 512 512;" xml:space="preserve">
<g>
	<g>
		<path d="M494.213,479.283l-24.551-269.985c-1.406-15.572-14.252-27.305-29.868-27.305h-17.607v60c0,8.291-6.709,15-15,15
			c-8.291,0-15.2-6.709-15.2-15v-60h-14.8c-33.091,0-60,26.909-60,60v240c0,16.538,13.462,30,30,30h73.226l-22.498-45h-20.728
			c-8.291,0-15.2-6.709-15.2-15v-120c0-8.291,6.909-15,15.2-15s15,6.709,15,15v105h15c5.684,0,10.869,3.208,13.418,8.291
			l33.351,66.709h10.375c8.54,0,16.421-3.472,22.148-9.756C492.25,495.924,495.004,487.764,494.213,479.283z"/>
	</g>
</g>
<g>
	<g>
		<path d="M97.395,351.388L168,280.782v-68.789c0-16.538-13.462-30-30-30h-35.2c-31.245,0-56.924,23.452-59.766,54.565
			l-22.06,242.695c-0.791,8.511,1.963,16.67,7.705,22.954c5.757,6.313,13.638,9.785,22.178,9.785H138c16.538,0,30-13.462,30-30
			V323.204l-45,45v83.789c0,8.291-6.709,15-15,15s-15-6.709-15-15v-90C93,358.009,94.582,354.2,97.395,351.388z"/>
	</g>
</g>
<g>
	<g>
		<path d="M450.575,0.007c-0.015,0-0.015,0-0.015,0l-277.863,17l6.046,30.242l140.2,28.037c8.115,1.626,13.389,9.521,11.763,17.651
			c-1.421,7.134-7.69,12.056-14.692,12.056c-0.967,0-1.963-0.088-2.959-0.293l-150-30c-5.933-1.187-10.576-5.83-11.763-11.763
			l-8.815-44.081l-77.172,4.72C44.14,24.983,25.111,37.639,15.634,56.609L5.127,75.623C1.772,82.332,0,89.832,0,97.317
			c0,26.763,22.782,48.545,49.545,48.545H481c16.538,0,31-13.462,31-30V59.993C512,26.917,484.12,0.007,450.575,0.007z"/>
	</g>
</g>
<g>
</g>
<g>
</g>
<g>
</g>
<g>
</g>
<g>
</g>
<g>
</g>
<g>
</g>
<g>
</g>
<g>
</g>
<g>
</g>
<g>
</g>
<g>
</g>
<g>
</g>
<g>
</g>
<g>
</g>
</svg>
