<?xml version="1.0" encoding="iso-8859-1"?>
<!-- Generator: Adobe Illustrator 19.0.0, SVG Export Plug-In . SVG Version: 6.00 Build 0)  -->
<svg version="1.1" id="Capa_1" xmlns="http://www.w3.org/2000/svg" xmlns:xlink="http://www.w3.org/1999/xlink" x="0px" y="0px"
	 viewBox="0 0 512.001 512.001" style="enable-background:new 0 0 512.001 512.001;" xml:space="preserve">
<g>
	<g>
		<path d="M463.801,118.761c0-34.849-28.353-63.2-63.201-63.2h-61.124l11.188-36.123c1.409-4.552,0.572-9.502-2.255-13.338
			c-2.827-3.835-7.31-6.1-12.074-6.1H175.666c-4.765,0-9.247,2.264-12.074,6.1c-2.827,3.835-3.664,8.786-2.255,13.338l11.188,36.123
			H111.4c-34.85,0-63.201,28.351-63.201,63.2c0,16.883,6.576,32.755,18.514,44.693l31.424,31.425
			c-11.709,23.845-17.803,50.044-17.803,77.188c0,5.224,0.487,10.94,1.446,17.133h348.44c0.959-6.192,1.446-11.909,1.446-17.133
			c0-27.146-6.095-53.346-17.803-77.19l31.423-31.422C457.226,151.517,463.801,135.644,463.801,118.761z M424.073,142.241
			l-26.215,26.215c-0.32-0.437-0.634-0.876-0.957-1.311c-9.353-12.541-20.404-23.769-32.698-33.384c-0.001,0-0.003,0-0.003,0
			H147.802c-12.296,9.616-23.349,20.845-32.702,33.387c-0.323,0.434-0.637,0.874-0.957,1.31L87.926,142.24
			c-6.271-6.271-9.727-14.61-9.727-23.479c0-18.307,14.895-33.2,33.201-33.2h70.415l5.637,18.2h137.096l5.637-18.2H400.6
			c18.308,0,33.201,14.893,33.201,33.2C433.801,127.63,430.347,135.969,424.073,142.241z"/>
	</g>
</g>
<g>
	<g>
		<path d="M366.145,482.001h-21.778c39.77-67.629,66.074-122.086,78.662-162.801H88.972c12.587,40.716,38.892,95.173,78.664,162.801
			H145.86c-8.284,0-15,6.716-15,15s6.716,15,15,15h48.199h123.887h48.199c8.284,0,15-6.716,15-15S374.429,482.001,366.145,482.001z"
			/>
	</g>
</g>
<g>
</g>
<g>
</g>
<g>
</g>
<g>
</g>
<g>
</g>
<g>
</g>
<g>
</g>
<g>
</g>
<g>
</g>
<g>
</g>
<g>
</g>
<g>
</g>
<g>
</g>
<g>
</g>
<g>
</g>
</svg>
