<svg viewBox="0 -41 512 512" xmlns="http://www.w3.org/2000/svg"><path d="m391.902344 289.195312h30.050781v50.871094h-30.050781zm0 0"/><path d="m90.046875 289.195312h30.050781v50.871094h-30.050781zm0 0"/><path d="m301.855469 315.035156c0-25.285156-20.570313-45.855468-45.855469-45.855468s-45.855469 20.570312-45.855469 45.855468v115.082032h91.710938zm0 0"/><path d="m482 189.117188h-482v241h180.144531v-115.082032c0-41.824218 34.027344-75.855468 75.855469-75.855468s75.855469 34.03125 75.855469 75.855468v115.082032h180.144531v-241zm-421.953125 70.078124h90.050781v110.871094h-90.050781zm301.855469 0h90.050781v110.871094h-90.050781zm0 0"/><path d="m429.460938 159.117188c-7.632813-89.011719-82.507813-159.117188-173.460938-159.117188s-165.828125 70.105469-173.460938 159.117188zm0 0"/></svg>