<?xml version="1.0" encoding="iso-8859-1"?>
<!-- Generator: Adobe Illustrator 19.0.0, SVG Export Plug-In . SVG Version: 6.00 Build 0)  -->
<svg xmlns="http://www.w3.org/2000/svg" xmlns:xlink="http://www.w3.org/1999/xlink" version="1.1" id="Layer_1" x="0px" y="0px" viewBox="0 0 512 512" style="enable-background:new 0 0 512 512;" xml:space="preserve" width="512" height="512">
<g>
	<path d="M188.168,151h135.617c-3.344-9.348-5.306-19.167-4.702-30H192.881C193.478,131.831,191.516,141.649,188.168,151z"/>
	<path d="M135.987,279.789c11.226-11.228,18.774-18.774,30-30l30,30l30-30l30,30l30-30l30,30l30-30c11.18,11.18,18.68,18.68,30,30   c15.467-15.469,11.479-11.481,27.138-27.138c-9.961-13.4-21.566-25.767-32.822-37.652c-10.889-11.501-21.116-22.595-29.722-33.999   H171.365c-8.6,11.402-18.816,22.498-29.694,33.999c-11.246,11.893-22.844,24.269-32.8,37.674   C124.415,268.215,120.634,264.436,135.987,279.789z"/>
	<path d="M405.987,292.211l-30,30l-30-30l-30,30l-30-30l-30,30l-30-30l-30,30l-30-30l-30,30l-30-30l-22.798,22.798   c-0.855,10.983,0.115,22.731,3.413,35.394l19.385,19.385l30-30l30,30l30-30l30,30l30-30l30,30l30-30l30,30l30-30l30,30   l19.398-19.398c3.3-12.649,4.277-24.379,3.433-35.349L405.987,292.211z"/>
	<path d="M185.464,91h141.048c1.573-4.083,2.743-7.991,4.915-12.334L370.259,0H141.714l38.833,78.666   C182.719,83.009,183.891,86.917,185.464,91z"/>
	<path d="M375.987,382.211c-10.939,10.937-18.276,18.276-30,30l-30-30l-30,30l-30-30l-30,30l-30-30l-30,30   c-11.772-11.774-19.107-19.107-30-30c-2.789,2.789,3.503-3.505-23.732,23.732L172.286,512h167.402l60.031-106.057   C372.484,378.706,378.776,385,375.987,382.211z"/>
</g>















</svg>
