<?xml version="1.0" encoding="iso-8859-1"?>
<!-- Generator: Adobe Illustrator 19.0.0, SVG Export Plug-In . SVG Version: 6.00 Build 0)  -->
<svg version="1.1" id="Capa_1" xmlns="http://www.w3.org/2000/svg" xmlns:xlink="http://www.w3.org/1999/xlink" x="0px" y="0px"
	 viewBox="0 0 512 512" style="enable-background:new 0 0 512 512;" xml:space="preserve">
<g>
	<g>
		<path d="M159.789,181h192.422L271,98.789V60h15c8.291,0,15-6.709,15-15s-6.709-15-15-15h-15V15c0-8.291-6.709-15-15-15
			c-8.291,0-15,6.709-15,15v15h-15c-8.291,0-15,6.709-15,15s6.709,15,15,15h15v38.789L159.789,181z"/>
	</g>
</g>
<g>
	<g>
		<path d="M151,211v301h60V406c0-24.814,20.186-45,45-45c24.814,0,45,20.186,45,45v106h60V211H151z M256,331
			c-24.814,0-45-20.186-45-45c0-24.814,20.186-45,45-45c24.814,0,45,20.186,45,45C301,310.814,280.814,331,256,331z"/>
	</g>
</g>
<g>
	<g>
		<path d="M9.434,302.069C3.735,304.354,0,309.862,0,316v181c0,8.291,6.709,15,15,15h30v-76c0-8.291,6.709-15,15-15s15,6.709,15,15
			v76h46V257.842L9.434,302.069z M75,376c0,8.291-6.709,15-15,15s-15-6.709-15-15v-30c0-8.291,6.709-15,15-15s15,6.709,15,15V376z"
			/>
	</g>
</g>
<g>
	<g>
		<path d="M502.566,302.069L391,257.842V512h46v-76c0-8.291,6.709-15,15-15c8.291,0,15,6.709,15,15v76h30c8.291,0,15-6.709,15-15
			V316C512,309.862,508.265,304.354,502.566,302.069z M467,376c0,8.291-6.709,15-15,15c-8.291,0-15-6.709-15-15v-30
			c0-8.291,6.709-15,15-15c8.291,0,15,6.709,15,15V376z"/>
	</g>
</g>
<g>
</g>
<g>
</g>
<g>
</g>
<g>
</g>
<g>
</g>
<g>
</g>
<g>
</g>
<g>
</g>
<g>
</g>
<g>
</g>
<g>
</g>
<g>
</g>
<g>
</g>
<g>
</g>
<g>
</g>
</svg>
